<?xml version="1.0" standalone="no"?><svg xmlns="http://www.w3.org/2000/svg" viewBox="0 0 1440 320"><path fill="#0099ff" fill-opacity="1" d="M0,224L30,229.3C60,235,120,245,180,250.7C240,256,300,256,360,240C420,224,480,192,540,165.3C600,139,660,117,720,117.3C780,117,840,139,900,165.3C960,192,1020,224,1080,234.7C1140,245,1200,235,1260,192C1320,149,1380,75,1410,37.3L1440,0L1440,320L1410,320C1380,320,1320,320,1260,320C1200,320,1140,320,1080,320C1020,320,960,320,900,320C840,320,780,320,720,320C660,320,600,320,540,320C480,320,420,320,360,320C300,320,240,320,180,320C120,320,60,320,30,320L0,320Z"></path></svg>